#!OML:ASF H:\Terrain\Patient Classification 1\Takeo\Monday\TakeoMonday.ASF
:FULLY-SPECIFIED
:DEGREES
744
root 9.43909 14.9347 -3.48332 28.157 11.5455 4.91697
lowerback 37.971 1.29522 9.18024
upperback 17.7869 4.68373 0.219812
thorax 1.66619 3.0847 -5.91715
lowerneck -16.8267 -2.33916 -4.81629
upperneck 10.485 -2.11879 0.630151
head 5.97834 -1.17704 0.765735
rclavicle -9.54166e-015 -3.18055e-015
rhumerus 43.5589 17.6943 -63.1929
rradius 31.0318
rwrist 0.847115
rhand -37.2056 38.9344
rfingers 7.12502
rthumb -10.273 9.20526
lclavicle -9.54166e-015 -3.18055e-015
lhumerus -17.4421 -5.6107 88.3545
lradius 68.207
lwrist 40.662
lhand -20.1007 19.577
lfingers 7.12502
lthumb 6.2426 49.465
rfemur -79.6391 -24.9058 33.6784
rtibia 77.6587
rfoot -27.8083 -5.58902
rtoes -0.664619
lfemur -77.1992 1.80107 -28.6708
ltibia 70.3504
lfoot -15.9315 -4.01195
ltoes 0.499545
745
root 9.43336 14.8588 -3.49134 28.7599 11.8714 5.17665
lowerback 37.9398 1.13247 9.58542
upperback 17.9481 4.61323 0.239358
thorax 1.8854 3.09864 -6.07212
lowerneck -18.3181 -2.58 -4.43253
upperneck 11.8323 -2.38727 0.250517
head 6.65511 -1.33474 0.534173
rclavicle -6.67916e-014 7.31528e-014
rhumerus 44.0835 17.4246 -62.6999
rradius 30.213
rwrist 1.26128
rhand -37.1682 38.2984
rfingers 7.12502
rthumb -10.2369 8.56754
lclavicle -6.67916e-014 7.31528e-014
lhumerus -17.0688 -6.1094 88.2893
lradius 67.9935
lwrist 41.1
lhand -20.1117 20.1801
lfingers 7.12502
lthumb 6.23197 50.0685
rfemur -80.8506 -25.0669 33.91
rtibia 78.5113
rfoot -28.2135 -5.68283
rtoes -0.0636996
lfemur -78.2612 1.41474 -28.9477
ltibia 70.9942
lfoot -16.0484 -3.94138
ltoes -0.749792
746
root 9.42496 14.7939 -3.49504 29.3367 12.1007 5.65136
lowerback 38.0192 1.02632 9.75052
upperback 18.042 4.54982 0.235078
thorax 1.97301 3.09321 -6.13905
lowerneck -18.6866 -2.71901 -4.08939
upperneck 12.0986 -2.59451 -0.0422732
head 6.79848 -1.447 0.355551
rclavicle 3.81667e-014 4.37326e-015
rhumerus 44.5183 17.2357 -62.1444
rradius 29.4297
rwrist 1.08442
rhand -36.8236 38.5785
rfingers 7.12502
rthumb -9.90442 8.83147
lclavicle 3.81667e-014 4.37326e-015
lhumerus -16.8963 -6.31536 88.2887
lradius 68.0914
lwrist 41.2936
lhand -20.1206 20.3869
lfingers 7.12502
lthumb 6.22336 50.2755
rfemur -81.9516 -25.2608 33.8219
rtibia 79.3391
rfoot -28.6807 -5.64268
rtoes 1.09726
lfemur -79.0748 1.00418 -29.4414
ltibia 71.5308
lfoot -16.2013 -3.85413
ltoes -1.45995
747
root 9.41631 14.7391 -3.50372 29.7407 12.356 6.02675
lowerback 38.241 0.900053 10.0309
upperback 18.1294 4.5147 0.262402
thorax 2.02366 3.10563 -6.24172
lowerneck -18.5225 -2.81379 -4.02816
upperneck 11.9333 -2.76452 0.0575754
head 6.72115 -1.51556 0.362062
rclavicle -3.18055e-014 1.51076e-014
rhumerus 44.7227 16.9139 -61.797
rradius 28.6965
rwrist 1.14656
rhand -36.4118 39.0343
rfingers 7.12502
rthumb -9.50711 9.26875
lclavicle -3.18055e-014 1.51076e-014
lhumerus -16.7738 -6.45969 88.3386
lradius 68.0789
lwrist 41.4374
lhand -20.1196 19.9439
lfingers 7.12502
lthumb 6.2243 49.8324
rfemur -82.8694 -25.4306 33.7363
rtibia 80.1374
rfoot -29.0282 -5.61037
rtoes 2.00283
lfemur -79.6867 0.577867 -29.7046
ltibia 71.9798
lfoot -16.2193 -3.9064
ltoes -0.673317
748
root 9.4109 14.6792 -3.51153 30.1839 12.5989 6.39948
lowerback 38.3118 0.78344 10.3441
upperback 18.2789 4.48373 0.302205
thorax 2.1944 3.13096 -6.34209
lowerneck -18.4593 -2.92235 -4.01628
upperneck 11.8626 -2.92495 0.101459
head 6.69127 -1.58779 0.357708
rclavicle -8.26944e-014 -6.42074e-014
rhumerus 44.8766 16.2676 -61.691
rradius 27.9114
rwrist 2.04491
rhand -36.2402 39.5374
rfingers 7.12502
rthumb -9.34154 9.76434
lclavicle -8.26944e-014 -6.42074e-014
lhumerus -16.5742 -6.6205 88.4711
lradius 68.0168
lwrist 41.4496
lhand -19.8718 20.0476
lfingers 7.12502
lthumb 6.46359 49.9289
rfemur -83.871 -25.641 33.7132
rtibia 80.9739
rfoot -29.3931 -5.51183
rtoes 1.75429
lfemur -80.3395 0.0991433 -29.9244
ltibia 72.4015
lfoot -16.2911 -3.92445
ltoes -0.0643708
